<?xml version="1.0" encoding="UTF-8"?>
<svg xmlns="http://www.w3.org/2000/svg"
  width="1152pt" height="896pt" viewBox="0 0 1152 896"
  preserveAspectRatio="xMidYMid meet">
  <defs>
    <!-- Glow effect -->
    <filter id="glow">
      <feGaussianBlur stdDeviation="6" result="blur"/>
      <feMerge>
        <feMergeNode in="blur"/>
        <feMergeNode in="SourceGraphic"/>
      </feMerge>
    </filter>

    <!-- Drop shadow for 3D look -->
    <filter id="shadow" x="-50%" y="-50%" width="200%" height="200%">
      <feDropShadow dx="0" dy="6" stdDeviation="8" flood-color="#6a00ff" flood-opacity="0.6"/>
    </filter>

    <!-- Gradient fill -->
    <linearGradient id="gradient" x1="0" y1="0" x2="0" y2="1">
      <stop offset="0%" stop-color="#7d3cff"/>
      <stop offset="100%" stop-color="#2b1b80"/>
    </linearGradient>
  </defs>

  <g transform="translate(0,896) scale(0.1,-0.1)"
     fill="url(#gradient)" filter="url(#shadow)">
    <path d="M5515 6960 c-546 -30 -1121 -201 -1581 -471 -152 -89 -294 -191 -471
    -338 l-43 -35 0 -206 c0 -465 53 -977 142 -1375 17 -77 33 -152 36 -168 2 -15
    8 -29 12 -32 5 -3 46 22 92 55 241 172 568 338 883 446 126 44 379 111 500
    134 369 68 827 78 1185 25 201 -30 344 -63 555 -127 227 -70 579 -220 591
    -253 14 -35 -146 -575 -170 -575 -7 0 -79 23 -161 50 -895 301 -1850 291
    -2740 -27 -169 -60 -497 -207 -548 -245 -17 -13 -16 -17 13 -83 45 -100 178
    -366 195 -389 14 -18 19 -17 132 42 291 150 650 269 988 327 254 44 337 50
    645 49 248 0 320 -4 455 -23 417 -58 790 -174 1164 -363 52 -27 99 -48 105
    -48 12 0 115 183 161 285 113 251 190 469 255 720 44 166 110 489 110 534 0
    27 -12 36 -157 122 -685 404 -1441 599 -2228 575 -508 -15 -977 -113 -1455
    -305 -96 -38 -176 -68 -179 -66 -9 10 -31 330 -33 493 l-3 177 115 77 c212
    143 525 287 783 362 119 35 349 82 499 103 174 24 581 24 778 0 507 -63 980
    -237 1349 -497 l74 -53 -8 -186 c-5 -102 -9 -203 -9 -225 l-1 -38 200 -102
    c110 -56 223 -116 251 -134 28 -18 53 -32 56 -32 17 0 48 492 48 759 l0 217
    -72 60 c-691 572 -1539 837 -2513 784z"/>
    <path d="M6814 3288 c-84 -108 -271 -287 -400 -384 -165 -124 -392 -251 -592
    -331 l-62 -25 -88 37 c-393 168 -724 405 -945 678 -52 64 -77 87 -94 87 -46 0
    -460 -181 -477 -208 -4 -7 18 -45 48 -86 185 -250 450 -500 711 -672 94 -61
    325 -194 338 -194 3 0 47 -20 98 -44 80 -37 311 -127 387 -151 56 -17 481 157
    709 290 346 203 648 473 882 789 35 46 41 60 30 68 -35 24 -288 141 -376 173
    -54 21 -101 39 -105 41 -4 3 -32 -28 -64 -68z"/>
  </g>

  <!-- Outer glow -->
  <g filter="url(#glow)">
    <rect x="0" y="0" width="100%" height="100%" fill="none"/>
  </g>
</svg>
